<?xml version="1.0" encoding="UTF-8"?>
<svg xmlns="http://www.w3.org/2000/svg" xmlns:xlink="http://www.w3.org/1999/xlink" width="16px" height="16px" viewBox="0 0 16 16" version="1.1">
<g id="surface1">
<path style=" stroke:none;fill-rule:nonzero;fill:rgb(0%,0%,0%);fill-opacity:1;" d="M 3.382812 0.0390625 C 3.289062 0.0820312 3.074219 0.503906 2.957031 0.859375 C 2.832031 1.242188 2.78125 1.511719 2.757812 1.9375 C 2.726562 2.59375 2.851562 3.210938 3.132812 3.816406 L 3.257812 4.085938 L 3.148438 4.253906 C 2.773438 4.84375 2.5 5.742188 2.5 6.402344 C 2.5 6.566406 2.511719 6.609375 2.578125 6.671875 C 2.675781 6.773438 2.820312 6.773438 2.917969 6.679688 C 2.980469 6.617188 2.992188 6.5625 3.007812 6.296875 C 3.070312 5.351562 3.441406 4.523438 4.105469 3.855469 C 4.648438 3.3125 5.3125 2.960938 6.078125 2.808594 C 6.394531 2.746094 9.605469 2.746094 9.921875 2.808594 C 10.6875 2.960938 11.351562 3.3125 11.894531 3.855469 C 12.417969 4.382812 12.742188 4.976562 12.925781 5.742188 C 12.96875 5.914062 12.976562 6.199219 12.992188 7.285156 L 13.007812 8.617188 L 11.773438 9.476562 C 11.09375 9.953125 10.53125 10.367188 10.519531 10.390625 C 10.457031 10.554688 10.574219 10.75 10.742188 10.75 C 10.804688 10.75 11.117188 10.554688 11.902344 10 C 12.492188 9.585938 12.976562 9.25 12.988281 9.25 C 12.992188 9.25 13 9.273438 13 9.296875 C 13 9.324219 13.035156 9.382812 13.078125 9.421875 C 13.179688 9.523438 13.320312 9.523438 13.425781 9.421875 L 13.503906 9.34375 L 13.492188 7.632812 C 13.480469 6.039062 13.476562 5.902344 13.414062 5.640625 C 13.296875 5.128906 13.097656 4.636719 12.851562 4.253906 L 12.742188 4.085938 L 12.867188 3.816406 C 13.386719 2.695312 13.371094 1.429688 12.824219 0.335938 C 12.75 0.1875 12.660156 0.0507812 12.628906 0.03125 C 12.542969 -0.0117188 12.359375 -0.0078125 11.976562 0.0507812 C 11.535156 0.117188 11.171875 0.226562 10.785156 0.410156 C 9.976562 0.792969 9.398438 1.332031 8.894531 2.164062 L 8.84375 2.25 L 7.15625 2.25 L 7.105469 2.164062 C 6.605469 1.335938 6.085938 0.84375 5.296875 0.453125 C 4.851562 0.230469 4.492188 0.117188 4.015625 0.046875 C 3.648438 -0.0078125 3.480469 -0.0078125 3.382812 0.0390625 Z M 4.109375 0.570312 C 4.570312 0.644531 5.136719 0.886719 5.574219 1.1875 C 5.835938 1.367188 6.304688 1.839844 6.460938 2.078125 C 6.582031 2.257812 6.582031 2.257812 6.230469 2.289062 C 6.109375 2.304688 5.871094 2.347656 5.699219 2.390625 C 5.53125 2.433594 5.382812 2.46875 5.371094 2.46875 C 5.359375 2.46875 5.195312 2.257812 5.003906 2.003906 C 4.808594 1.746094 4.632812 1.527344 4.605469 1.519531 C 4.507812 1.480469 4.398438 1.503906 4.328125 1.578125 C 4.191406 1.710938 4.21875 1.792969 4.5625 2.25 C 4.734375 2.476562 4.875 2.667969 4.875 2.671875 C 4.875 2.675781 4.757812 2.75 4.617188 2.835938 C 4.273438 3.046875 4.054688 3.210938 3.808594 3.453125 L 3.601562 3.65625 L 3.53125 3.492188 C 3.355469 3.089844 3.25 2.570312 3.25 2.125 C 3.25 1.640625 3.382812 1.039062 3.578125 0.65625 L 3.65625 0.5 L 3.789062 0.519531 C 3.863281 0.527344 4.007812 0.550781 4.109375 0.570312 Z M 12.421875 0.652344 C 12.835938 1.46875 12.851562 2.609375 12.46875 3.492188 L 12.398438 3.65625 L 12.191406 3.457031 C 11.925781 3.195312 11.683594 3.007812 11.375 2.828125 C 11.238281 2.746094 11.125 2.679688 11.125 2.675781 C 11.125 2.667969 11.265625 2.476562 11.4375 2.25 C 11.78125 1.792969 11.808594 1.710938 11.671875 1.578125 C 11.601562 1.503906 11.492188 1.480469 11.394531 1.519531 C 11.367188 1.527344 11.191406 1.746094 10.996094 2.003906 C 10.804688 2.257812 10.640625 2.46875 10.628906 2.46875 C 10.617188 2.46875 10.46875 2.433594 10.300781 2.390625 C 10.128906 2.347656 9.890625 2.304688 9.769531 2.289062 C 9.417969 2.257812 9.417969 2.257812 9.539062 2.078125 C 9.695312 1.839844 10.164062 1.367188 10.425781 1.1875 C 10.960938 0.816406 11.691406 0.550781 12.304688 0.503906 C 12.324219 0.5 12.378906 0.570312 12.421875 0.652344 Z M 12.421875 0.652344 "/>
<path style=" stroke:none;fill-rule:nonzero;fill:rgb(0%,0%,0%);fill-opacity:1;" d="M 8.828125 3.578125 C 8.777344 3.625 8.75 3.691406 8.75 3.75 C 8.75 3.808594 8.777344 3.875 8.828125 3.921875 C 8.894531 3.992188 8.929688 4 9.125 4 C 9.320312 4 9.355469 3.992188 9.421875 3.921875 C 9.472656 3.875 9.5 3.808594 9.5 3.75 C 9.5 3.691406 9.472656 3.625 9.421875 3.578125 C 9.355469 3.507812 9.320312 3.5 9.125 3.5 C 8.929688 3.5 8.894531 3.507812 8.828125 3.578125 Z M 8.828125 3.578125 "/>
<path style=" stroke:none;fill-rule:nonzero;fill:rgb(0%,0%,0%);fill-opacity:1;" d="M 9.828125 3.578125 C 9.777344 3.625 9.75 3.691406 9.75 3.75 C 9.75 3.808594 9.777344 3.875 9.828125 3.921875 C 9.894531 3.992188 9.929688 4 10.125 4 C 10.320312 4 10.355469 3.992188 10.421875 3.921875 C 10.472656 3.875 10.5 3.808594 10.5 3.75 C 10.5 3.691406 10.472656 3.625 10.421875 3.578125 C 10.355469 3.507812 10.320312 3.5 10.125 3.5 C 9.929688 3.5 9.894531 3.507812 9.828125 3.578125 Z M 9.828125 3.578125 "/>
<path style=" stroke:none;fill-rule:nonzero;fill:rgb(0%,0%,0%);fill-opacity:1;" d="M 5.578125 5.078125 C 5.527344 5.125 5.5 5.191406 5.5 5.25 C 5.5 5.308594 5.527344 5.375 5.578125 5.421875 C 5.652344 5.5 5.660156 5.5 6.25 5.5 C 6.839844 5.5 6.847656 5.5 6.921875 5.421875 C 6.972656 5.375 7 5.308594 7 5.25 C 7 5.191406 6.972656 5.125 6.921875 5.078125 C 6.847656 5 6.839844 5 6.25 5 C 5.660156 5 5.652344 5 5.578125 5.078125 Z M 5.578125 5.078125 "/>
<path style=" stroke:none;fill-rule:nonzero;fill:rgb(0%,0%,0%);fill-opacity:1;" d="M 9.078125 5.078125 C 9.027344 5.125 9 5.191406 9 5.25 C 9 5.308594 9.027344 5.375 9.078125 5.421875 C 9.152344 5.5 9.160156 5.5 9.75 5.5 C 10.339844 5.5 10.347656 5.5 10.421875 5.421875 C 10.472656 5.375 10.5 5.308594 10.5 5.25 C 10.5 5.191406 10.472656 5.125 10.421875 5.078125 C 10.347656 5 10.339844 5 9.75 5 C 9.160156 5 9.152344 5 9.078125 5.078125 Z M 9.078125 5.078125 "/>
<path style=" stroke:none;fill-rule:nonzero;fill:rgb(0%,0%,0%);fill-opacity:1;" d="M 3.820312 6.082031 C 3.753906 6.148438 3.742188 6.179688 3.761719 6.304688 C 3.792969 6.527344 3.988281 7.074219 4.15625 7.414062 C 4.757812 8.613281 5.757812 9.371094 6.894531 9.488281 C 7.074219 9.507812 7.09375 9.503906 7.171875 9.425781 L 7.257812 9.339844 L 7.242188 8.742188 C 7.230469 8.203125 7.222656 8.117188 7.148438 7.898438 C 6.976562 7.382812 6.632812 6.976562 6.152344 6.734375 C 5.949219 6.632812 4.078125 6 3.976562 6 C 3.9375 6 3.867188 6.039062 3.820312 6.082031 Z M 5.167969 6.90625 C 6.105469 7.222656 6.289062 7.335938 6.542969 7.757812 C 6.679688 7.992188 6.75 8.289062 6.75 8.667969 C 6.75 9.007812 6.785156 8.988281 6.40625 8.867188 C 5.664062 8.632812 5.035156 8.066406 4.628906 7.261719 C 4.519531 7.039062 4.375 6.710938 4.375 6.671875 C 4.375 6.640625 4.441406 6.664062 5.167969 6.90625 Z M 5.167969 6.90625 "/>
<path style=" stroke:none;fill-rule:nonzero;fill:rgb(0%,0%,0%);fill-opacity:1;" d="M 10.96875 6.324219 C 10.445312 6.503906 9.929688 6.691406 9.828125 6.742188 C 9.296875 7.011719 8.921875 7.507812 8.800781 8.101562 C 8.765625 8.261719 8.75 8.507812 8.75 8.84375 C 8.75 9.339844 8.75 9.347656 8.832031 9.429688 C 8.90625 9.503906 8.921875 9.507812 9.117188 9.484375 C 10.046875 9.382812 10.925781 8.835938 11.5 7.996094 C 11.828125 7.519531 12.183594 6.695312 12.242188 6.292969 C 12.257812 6.179688 12.246094 6.148438 12.179688 6.082031 C 12.128906 6.03125 12.0625 6 12.007812 6.003906 C 11.960938 6.003906 11.492188 6.148438 10.96875 6.324219 Z M 11.625 6.671875 C 11.625 6.710938 11.480469 7.039062 11.371094 7.261719 C 10.964844 8.066406 10.335938 8.632812 9.59375 8.867188 C 9.214844 8.988281 9.25 9.007812 9.25 8.671875 C 9.25 8.511719 9.265625 8.304688 9.28125 8.214844 C 9.320312 7.992188 9.46875 7.699219 9.625 7.523438 C 9.847656 7.273438 10.039062 7.171875 10.820312 6.90625 C 11.519531 6.667969 11.625 6.636719 11.625 6.671875 Z M 11.625 6.671875 "/>
<path style=" stroke:none;fill-rule:nonzero;fill:rgb(0%,0%,0%);fill-opacity:1;" d="M 2.574219 7.328125 L 2.496094 7.40625 L 2.507812 9.195312 C 2.519531 10.914062 2.523438 10.996094 2.589844 11.296875 C 2.773438 12.105469 3.132812 12.773438 3.695312 13.367188 C 3.835938 13.507812 4.050781 13.703125 4.167969 13.792969 C 4.460938 14.011719 7.3125 15.800781 7.53125 15.902344 C 7.679688 15.972656 7.746094 15.984375 8 15.984375 C 8.257812 15.984375 8.320312 15.972656 8.476562 15.898438 C 8.710938 15.789062 11.542969 14.011719 11.835938 13.789062 C 12.308594 13.429688 12.824219 12.804688 13.070312 12.273438 C 13.316406 11.757812 13.457031 11.210938 13.492188 10.660156 C 13.507812 10.382812 13.503906 10.351562 13.4375 10.273438 C 13.339844 10.148438 13.160156 10.152344 13.054688 10.277344 C 13.015625 10.332031 12.648438 10.554688 12.171875 10.828125 C 11.726562 11.082031 11.335938 11.316406 11.304688 11.351562 C 11.183594 11.492188 11.300781 11.75 11.480469 11.75 C 11.523438 11.75 11.867188 11.574219 12.25 11.359375 C 12.628906 11.144531 12.941406 10.96875 12.949219 10.96875 C 12.972656 10.96875 12.851562 11.472656 12.789062 11.65625 C 12.539062 12.351562 12.027344 13.046875 11.464844 13.445312 C 11.101562 13.699219 8.332031 15.429688 8.222656 15.460938 C 8.085938 15.507812 7.914062 15.507812 7.777344 15.460938 C 7.609375 15.40625 4.585938 13.492188 4.335938 13.289062 C 3.820312 12.855469 3.421875 12.273438 3.207031 11.625 C 3.101562 11.308594 3.023438 10.96875 3.054688 10.96875 C 3.0625 10.96875 3.375 11.144531 3.75 11.359375 C 4.121094 11.574219 4.460938 11.75 4.496094 11.75 C 4.578125 11.75 4.75 11.589844 4.75 11.519531 C 4.75 11.367188 4.671875 11.308594 3.839844 10.835938 L 3 10.359375 L 3 9.804688 C 3 9.5 3.007812 9.25 3.015625 9.25 C 3.023438 9.25 3.511719 9.585938 4.101562 10 C 4.890625 10.554688 5.191406 10.75 5.257812 10.75 C 5.425781 10.75 5.542969 10.554688 5.480469 10.390625 C 5.46875 10.367188 4.90625 9.953125 4.230469 9.480469 L 3 8.617188 L 3 8.011719 C 3 7.40625 3 7.402344 2.921875 7.328125 C 2.820312 7.226562 2.679688 7.226562 2.574219 7.328125 Z M 2.574219 7.328125 "/>
<path style=" stroke:none;fill-rule:nonzero;fill:rgb(0%,0%,0%);fill-opacity:1;" d="M 7.742188 11.242188 C 7.734375 11.894531 7.726562 11.996094 7.675781 12.09375 C 7.523438 12.375 7.304688 12.511719 7 12.511719 C 6.804688 12.511719 6.773438 12.5 6.339844 12.273438 C 6.089844 12.140625 5.878906 12.03125 5.871094 12.03125 C 5.851562 12.03125 5.644531 12.464844 5.660156 12.476562 C 5.664062 12.484375 5.882812 12.601562 6.140625 12.730469 C 6.683594 13.007812 6.886719 13.0625 7.1875 13.007812 C 7.441406 12.960938 7.671875 12.851562 7.851562 12.6875 L 8 12.554688 L 8.136719 12.679688 C 8.570312 13.082031 9.117188 13.132812 9.679688 12.828125 C 9.882812 12.71875 10.40625 12.242188 10.40625 12.171875 C 10.40625 12.132812 10.117188 11.84375 10.074219 11.84375 C 10.058594 11.84375 9.941406 11.949219 9.8125 12.082031 C 9.503906 12.394531 9.277344 12.511719 9 12.511719 C 8.679688 12.511719 8.449219 12.363281 8.316406 12.0625 C 8.257812 11.933594 8.25 11.859375 8.25 11.210938 L 8.25 10.5 L 7.753906 10.5 Z M 7.742188 11.242188 "/>
</g>
</svg>
