<?xml version="1.0" standalone="no"?>
<!DOCTYPE svg PUBLIC "-//W3C//DTD SVG 20010904//EN"
 "http://www.w3.org/TR/2001/REC-SVG-20010904/DTD/svg10.dtd">
<svg version="1.0" xmlns="http://www.w3.org/2000/svg"
 width="406.000000pt" height="370.000000pt" viewBox="0 0 406.000000 370.000000"
 preserveAspectRatio="xMidYMid meet">

<g transform="translate(0.000000,370.000000) scale(0.100000,-0.100000)"
fill="#000000" stroke="none">
<path d="M2417 3478 c-16 -12 -17 -19 -8 -58 6 -25 11 -66 11 -92 0 -46 -2
-49 -97 -146 -135 -136 -321 -289 -580 -478 -111 -81 -120 -86 -158 -81 -28 4
-45 1 -57 -10 -15 -14 -16 -19 -3 -49 8 -19 25 -49 38 -66 14 -18 29 -49 35
-68 12 -39 28 -217 37 -420 16 -330 -54 -707 -227 -1224 -36 -110 -46 -152
-38 -160 14 -14 47 24 141 164 125 186 235 434 305 689 51 185 55 222 61 611
l5 355 -37 43 c-20 23 -57 54 -82 68 -24 15 -41 30 -36 34 4 4 31 15 58 25 28
10 88 35 134 56 84 39 101 41 101 12 0 -9 21 -55 48 -102 l47 -86 3 -170 c8
-398 -40 -1177 -88 -1425 l-18 -95 31 -55 c77 -138 161 -240 196 -240 29 0 82
66 146 181 76 136 275 469 280 469 2 0 26 -23 52 -51 67 -72 97 -89 137 -78
17 5 37 17 44 26 15 21 16 119 0 164 -21 63 -78 138 -126 166 -85 50 -300 100
-317 74 -8 -13 39 -88 100 -161 l37 -45 -78 -74 c-96 -91 -225 -201 -234 -201
-4 0 -6 53 -4 117 2 65 9 271 14 458 6 187 15 456 21 599 13 285 10 304 -42
388 -34 52 -88 100 -172 150 l-56 34 134 67 c155 77 303 166 458 275 l109 76
-5 52 c-11 105 -89 205 -201 258 -72 34 -98 39 -119 24z"/>
<path d="M1101 3456 c-12 -14 -10 -27 12 -85 l25 -69 -41 -53 c-48 -65 -76
-99 -133 -163 l-44 -48 -52 35 c-120 79 -279 136 -393 140 -53 2 -60 0 -63
-18 -2 -16 10 -25 54 -44 65 -28 238 -142 304 -200 l45 -39 -135 -134 c-74
-73 -184 -174 -244 -223 -164 -135 -157 -128 -147 -144 7 -11 47 4 203 81 106
52 246 125 310 161 65 37 122 67 127 67 21 0 80 -202 81 -273 0 -54 -229 -477
-396 -731 -132 -200 -248 -351 -396 -515 -57 -62 -71 -91 -45 -91 20 0 276
197 401 308 63 56 159 150 213 210 95 103 251 292 272 329 5 10 12 15 15 12
13 -13 19 -495 7 -599 -28 -246 -104 -588 -143 -646 -13 -18 -37 -41 -55 -51
-30 -16 -38 -16 -170 6 -76 13 -142 24 -147 25 -6 0 -11 -6 -13 -14 -2 -9 25
-34 69 -65 76 -53 216 -186 311 -298 33 -38 66 -67 77 -67 29 0 69 56 131 185
100 212 164 552 190 1025 26 482 -29 872 -181 1277 -22 58 -40 111 -39 117 0
6 59 59 132 119 73 59 156 128 185 155 52 46 52 48 42 83 -24 85 -123 173
-248 219 -83 31 -106 34 -121 16z"/>
<path d="M2364 2629 c-3 -6 3 -23 15 -37 52 -67 146 -213 182 -285 22 -43 123
-266 223 -495 250 -568 336 -762 413 -929 l65 -141 79 -22 c126 -34 304 -68
439 -85 155 -19 180 -19 180 -1 0 8 -45 53 -99 100 -408 355 -779 842 -1085
1424 -134 255 -227 381 -333 451 -50 33 -68 38 -79 20z"/>
</g>
</svg>
