<?xml version="1.0" standalone="no"?>
<!DOCTYPE svg PUBLIC "-//W3C//DTD SVG 20010904//EN"
 "http://www.w3.org/TR/2001/REC-SVG-20010904/DTD/svg10.dtd">
<svg version="1.0" xmlns="http://www.w3.org/2000/svg"
 width="512.000000pt" height="512.000000pt" viewBox="0 0 512.000000 512.000000"
 preserveAspectRatio="xMidYMid meet">

<g transform="translate(0.000000,512.000000) scale(0.100000,-0.100000)"
fill="#000000" stroke="none">
<path d="M1082 5107 c-29 -13 -98 -148 -136 -262 -40 -123 -56 -209 -63 -345
-10 -210 29 -407 119 -601 l40 -86 -35 -54 c-120 -189 -207 -477 -207 -688 0
-52 4 -66 25 -86 31 -32 78 -33 109 -2 20 20 24 37 29 122 19 303 138 567 351
781 174 174 386 287 631 335 101 20 1129 20 1230 0 245 -48 457 -161 631 -335
168 -168 272 -358 330 -603 14 -55 17 -147 21 -494 l5 -426 -395 -276 c-217
-152 -397 -284 -401 -292 -20 -53 18 -115 71 -115 21 0 120 63 372 240 188
132 344 240 347 240 2 0 4 -7 4 -15 0 -9 11 -27 25 -40 32 -33 78 -33 111 0
l25 25 -4 548 c-3 509 -5 553 -24 637 -38 164 -102 321 -180 444 l-35 54 40
86 c166 359 161 763 -14 1113 -24 48 -53 92 -63 98 -27 14 -86 13 -208 -6
-142 -21 -258 -56 -382 -115 -259 -123 -444 -295 -605 -561 l-16 -28 -270 0
-270 0 -16 28 c-160 265 -326 422 -579 547 -143 71 -257 107 -410 130 -117 17
-171 18 -203 2z m233 -169 c147 -24 329 -102 469 -198 83 -57 234 -209 284
-285 38 -58 38 -58 -74 -68 -39 -4 -115 -18 -170 -32 -54 -14 -102 -25 -105
-25 -4 0 -57 67 -118 149 -62 82 -119 152 -127 155 -32 12 -66 5 -89 -19 -44
-43 -35 -69 75 -215 55 -73 100 -134 100 -135 0 -1 -37 -25 -82 -52 -111 -68
-180 -120 -259 -198 l-67 -65 -22 53 c-56 128 -90 294 -90 437 0 155 43 348
105 470 l25 50 43 -6 c23 -3 69 -10 102 -16z m2660 -27 c132 -261 138 -626 15
-909 l-23 -52 -66 64 c-85 84 -162 143 -261 201 -44 26 -80 48 -80 49 0 2 45
63 100 136 110 146 119 172 75 215 -23 24 -57 31 -89 19 -8 -3 -65 -73 -127
-155 -61 -82 -114 -149 -118 -149 -3 0 -51 11 -105 25 -55 14 -131 28 -170 32
-112 10 -112 10 -74 68 50 76 201 228 284 285 172 119 405 204 601 219 7 1 24
-21 38 -48z"/>
<path d="M2825 3975 c-16 -15 -25 -36 -25 -55 0 -19 9 -40 25 -55 21 -22 33
-25 95 -25 62 0 74 3 95 25 16 15 25 36 25 55 0 19 -9 40 -25 55 -21 22 -33
25 -95 25 -62 0 -74 -3 -95 -25z"/>
<path d="M3145 3975 c-16 -15 -25 -36 -25 -55 0 -19 9 -40 25 -55 21 -22 33
-25 95 -25 62 0 74 3 95 25 16 15 25 36 25 55 0 19 -9 40 -25 55 -21 22 -33
25 -95 25 -62 0 -74 -3 -95 -25z"/>
<path d="M1785 3495 c-16 -15 -25 -36 -25 -55 0 -19 9 -40 25 -55 24 -25 26
-25 215 -25 189 0 191 0 215 25 16 15 25 36 25 55 0 19 -9 40 -25 55 -24 25
-26 25 -215 25 -189 0 -191 0 -215 -25z"/>
<path d="M2905 3495 c-16 -15 -25 -36 -25 -55 0 -19 9 -40 25 -55 24 -25 26
-25 215 -25 189 0 191 0 215 25 16 15 25 36 25 55 0 19 -9 40 -25 55 -24 25
-26 25 -215 25 -189 0 -191 0 -215 -25z"/>
<path d="M1223 3174 c-22 -22 -25 -31 -19 -71 10 -72 72 -247 126 -355 192
-384 512 -627 876 -664 58 -6 64 -5 89 20 l27 27 -4 192 c-4 172 -7 200 -30
269 -55 166 -165 295 -319 373 -65 33 -664 235 -697 235 -12 0 -35 -12 -49
-26z m431 -264 c300 -101 358 -137 440 -273 44 -74 66 -170 66 -291 0 -108 11
-102 -110 -64 -238 75 -439 257 -569 514 -35 71 -81 177 -81 189 0 10 21 3
254 -75z"/>
<path d="M3510 3096 c-168 -57 -332 -117 -365 -133 -170 -87 -290 -245 -329
-436 -11 -51 -16 -129 -16 -237 0 -159 0 -161 26 -187 24 -24 29 -25 92 -18
297 32 578 207 762 476 105 153 219 416 237 545 5 36 2 46 -20 68 -16 16 -37
26 -54 25 -15 0 -165 -47 -333 -103z m210 -111 c0 -12 -46 -118 -81 -189 -130
-257 -331 -439 -569 -514 -121 -38 -110 -44 -110 63 0 51 5 117 10 146 13 71
60 165 110 221 71 81 132 113 382 198 224 76 258 86 258 75z"/>
<path d="M824 2775 l-25 -25 4 -573 c3 -549 4 -576 26 -672 58 -259 173 -473
354 -662 45 -46 113 -108 151 -137 94 -70 1006 -642 1076 -675 47 -22 69 -26
150 -26 82 0 103 4 152 27 75 35 982 604 1075 675 152 115 317 316 396 485 78
165 123 340 134 517 5 88 4 98 -17 124 -31 39 -89 38 -122 -2 -13 -17 -130
-89 -283 -176 -143 -81 -268 -156 -277 -167 -39 -45 -2 -128 56 -128 14 0 124
56 246 125 121 69 221 125 224 125 7 0 -31 -161 -52 -220 -79 -223 -243 -445
-423 -572 -116 -82 -1003 -635 -1038 -646 -43 -15 -99 -15 -142 0 -54 18
-1021 630 -1101 696 -166 138 -293 324 -362 532 -33 101 -59 210 -48 210 2 0
102 -56 222 -125 119 -69 227 -125 239 -125 26 0 81 51 81 74 0 48 -25 67
-291 218 l-269 153 0 178 c0 97 2 177 5 177 3 0 159 -108 347 -240 253 -177
349 -240 370 -240 54 0 92 62 72 115 -4 8 -184 140 -400 291 l-394 276 0 194
c0 194 0 195 -25 219 -32 33 -78 33 -111 0z"/>
<path d="M2478 1523 c-3 -209 -5 -242 -22 -273 -48 -90 -119 -134 -216 -134
-62 0 -72 4 -211 77 -80 42 -148 77 -150 77 -7 0 -73 -139 -68 -143 2 -2 72
-39 154 -81 174 -89 239 -106 335 -88 81 15 155 50 213 102 l47 42 44 -40
c139 -128 314 -145 494 -47 65 35 232 187 232 210 0 13 -92 105 -106 105 -5 0
-43 -34 -84 -76 -99 -100 -171 -138 -260 -138 -102 0 -176 48 -219 144 -19 41
-21 65 -21 273 l0 227 -79 0 -80 0 -3 -237z"/>
</g>
</svg>
